<?xml version="1.0" encoding="UTF-8"?>
<svg xmlns="http://www.w3.org/2000/svg" xmlns:xlink="http://www.w3.org/1999/xlink" viewBox="0 0 64 64" width="64px" height="64px">
<defs>
<radialGradient id="radial0" gradientUnits="userSpaceOnUse" cx="87.34375" cy="87.34375" fx="87.34375" fy="87.34375" r="82.011749" gradientTransform="matrix(0.372093,0,0,0.372093,0,0)">
<stop offset="0" style="stop-color:rgb(10.196079%,73.725492%,61.176473%);stop-opacity:1;"/>
<stop offset="0.106" style="stop-color:rgb(10.196079%,73.725492%,61.176473%);stop-opacity:1;"/>
<stop offset="0.437" style="stop-color:rgb(10.196079%,73.725492%,61.176473%);stop-opacity:1;"/>
<stop offset="0.744" style="stop-color:rgb(10.196079%,73.725492%,61.176473%);stop-opacity:1;"/>
<stop offset="1" style="stop-color:rgb(18.039216%,80.000001%,44.313726%);stop-opacity:1;"/>
</radialGradient>
<linearGradient id="linear0" gradientUnits="userSpaceOnUse" x1="86.002693" y1="29.5625" x2="86.002693" y2="145.082001" gradientTransform="matrix(0.372093,0,0,0.372093,0,0)">
<stop offset="0" style="stop-color:rgb(0%,84.313726%,44.705883%);stop-opacity:1;"/>
<stop offset="0.996" style="stop-color:rgb(0%,69.803923%,43.137255%);stop-opacity:1;"/>
<stop offset="1" style="stop-color:rgb(0%,69.803923%,43.137255%);stop-opacity:1;"/>
</linearGradient>
<linearGradient id="linear1" gradientUnits="userSpaceOnUse" x1="116.785309" y1="29.938749" x2="116.785309" y2="105.452133" gradientTransform="matrix(0.372093,0,0,0.372093,0,0)">
<stop offset="0" style="stop-color:rgb(0%,90.196079%,47.843137%);stop-opacity:1;"/>
<stop offset="0.996" style="stop-color:rgb(0%,75.686276%,46.666667%);stop-opacity:1;"/>
<stop offset="1" style="stop-color:rgb(0%,75.686276%,46.666667%);stop-opacity:1;"/>
</linearGradient>
<linearGradient id="linear2" gradientUnits="userSpaceOnUse" x1="23.23613" y1="113.065811" x2="112.740631" y2="145.641006" gradientTransform="matrix(0.372093,0,0,0.372093,0,0)">
<stop offset="0" style="stop-color:rgb(0%,76.078433%,40.392157%);stop-opacity:1;"/>
<stop offset="0.996" style="stop-color:rgb(0%,61.56863%,38.039216%);stop-opacity:1;"/>
<stop offset="1" style="stop-color:rgb(0%,61.56863%,38.039216%);stop-opacity:1;"/>
</linearGradient>
</defs>
<g id="surface52136899">
<path style=" stroke:none;fill-rule:nonzero;fill:url(#radial0);" d="M 59 21 L 60.5 21 C 62.667969 21 64.390625 19.003906 63.921875 16.757812 C 63.578125 15.121094 62.054688 14 60.386719 14 L 53 14 C 51.894531 14 51 13.105469 51 12 C 51 10.894531 51.894531 10 53 10 L 56.386719 10 C 58.054688 10 59.578125 8.878906 59.921875 7.242188 C 60.390625 4.996094 58.667969 3 56.5 3 L 8.5 3 C 6.574219 3 5 4.574219 5 6.5 C 5 8.425781 6.574219 10 8.5 10 L 10 10 C 11.105469 10 12 10.894531 12 12 C 12 13.105469 11.105469 14 10 14 L 4.613281 14 C 2.945312 14 1.421875 15.121094 1.078125 16.757812 C 0.609375 19.003906 2.332031 21 4.5 21 L 18 21 L 18 33 L 4.613281 33 C 2.945312 33 1.421875 34.121094 1.078125 35.757812 C 0.609375 38.003906 2.332031 40 4.5 40 L 5 40 C 6.105469 40 7 40.894531 7 42 C 7 43.105469 6.105469 44 5 44 L 4.5 44 C 2.332031 44 0.609375 45.996094 1.078125 48.242188 C 1.421875 49.878906 2.945312 51 4.613281 51 L 10 51 C 11.105469 51 12 51.894531 12 53 C 12 54.105469 11.105469 55 10 55 L 8.613281 55 C 6.945312 55 5.421875 56.121094 5.078125 57.757812 C 4.609375 60.003906 6.332031 62 8.5 62 L 55.5 62 C 57.425781 62 59 60.425781 59 58.5 C 59 56.574219 57.425781 55 55.5 55 L 55 55 C 53.894531 55 53 54.105469 53 53 C 53 51.894531 53.894531 51 55 51 L 59.386719 51 C 61.054688 51 62.578125 49.878906 62.921875 48.242188 C 63.390625 45.996094 61.667969 44 59.5 44 L 47 44 L 47 32 L 59.386719 32 C 61.054688 32 62.578125 30.878906 62.921875 29.242188 C 63.390625 26.996094 61.667969 25 59.5 25 L 59 25 C 57.894531 25 57 24.105469 57 23 C 57 21.894531 57.894531 21 59 21 Z M 59 21 "/>
<path style=" stroke:none;fill-rule:nonzero;fill:rgb(100%,100%,100%);fill-opacity:1;" d="M 29.945312 7.082031 C 17.734375 8.058594 7.890625 18.03125 7.058594 30.257812 C 6.75 34.808594 7.660156 39.121094 9.5 42.902344 L 6.132812 55.691406 C 5.628906 57.617188 7.382812 59.371094 9.308594 58.867188 L 22.90625 55.285156 C 26.566406 56.71875 30.640625 57.320312 34.90625 56.832031 C 46.707031 55.484375 56.050781 45.75 56.929688 33.902344 C 58.066406 18.550781 45.316406 5.855469 29.945312 7.082031 Z M 29.945312 7.082031 "/>
<path style=" stroke:none;fill-rule:nonzero;fill:url(#linear0);" d="M 13.554688 43.203125 C 13.679688 42.742188 13.628906 42.253906 13.421875 41.824219 L 13.097656 41.15625 C 11.507812 37.882812 10.800781 34.207031 11.050781 30.527344 C 11.75 20.253906 20.011719 11.886719 30.265625 11.070312 C 30.84375 11.023438 31.425781 11 32 11 C 37.816406 11 43.429688 13.445312 47.390625 17.714844 C 51.410156 22.039062 53.378906 27.683594 52.941406 33.609375 C 52.210938 43.464844 44.261719 51.738281 34.453125 52.859375 C 33.636719 52.953125 32.8125 53 32 53 C 29.375 53 26.808594 52.515625 24.363281 51.5625 L 23.757812 51.324219 C 23.363281 51.171875 22.929688 51.144531 22.519531 51.253906 L 12.269531 53.949219 C 11.53125 54.144531 10.855469 53.46875 11.050781 52.730469 Z M 13.554688 43.203125 "/>
<path style=" stroke:none;fill-rule:evenodd;fill:rgb(100%,100%,100%);fill-opacity:1;" d="M 25.609375 21.113281 C 25.132812 20.054688 24.628906 20.03125 24.171875 20.015625 C 23.796875 20 23.371094 20 22.945312 20 C 22.519531 20 21.828125 20.160156 21.238281 20.796875 C 20.652344 21.433594 19 22.972656 19 26.105469 C 19 29.238281 21.292969 32.265625 21.613281 32.691406 C 21.933594 33.113281 26.039062 39.75 32.539062 42.300781 C 37.941406 44.421875 39.042969 44 40.21875 43.894531 C 41.390625 43.789062 44.003906 42.355469 44.535156 40.867188 C 45.066406 39.382812 45.066406 38.109375 44.910156 37.84375 C 44.75 37.578125 44.320312 37.417969 43.683594 37.097656 C 43.386719 36.953125 41.753906 36.148438 39.964844 35.285156 C 39.140625 34.886719 38.148438 35.101562 37.5625 35.804688 C 37.320312 36.09375 36.851562 36.652344 36.332031 37.273438 C 35.738281 37.980469 34.746094 38.191406 33.917969 37.785156 C 32.648438 37.167969 30.777344 36.136719 29.316406 34.84375 C 28.269531 33.914062 27.0625 32.277344 26.277344 31.132812 C 25.746094 30.359375 25.8125 29.332031 26.445312 28.640625 C 26.722656 28.335938 27.007812 28.027344 27.210938 27.789062 C 27.695312 27.222656 27.828125 26.429688 27.542969 25.738281 C 26.964844 24.320312 25.996094 21.972656 25.609375 21.113281 Z M 25.609375 21.113281 "/>
<path style=" stroke:none;fill-rule:nonzero;fill:url(#linear1);" d="M 52.910156 30 L 44 30 C 42.890625 30 42 29.109375 42 27.988281 L 42 27.941406 C 42 26.871094 42.871094 26 43.941406 26 L 44.5 26 C 45.328125 26 46 25.328125 46 24.5 C 46 23.671875 45.328125 23 44.5 23 L 36.5 23 C 35.808594 23 35.179688 22.71875 34.730469 22.269531 C 34.28125 21.820312 34 21.191406 34 20.5 C 34 19.121094 35.121094 18 36.5 18 L 37.5 18 C 38.328125 18 39 17.328125 39 16.5 C 39 15.671875 38.328125 15 37.5 15 L 36.5 15 C 35.808594 15 35.179688 14.71875 34.730469 14.269531 C 34.28125 13.820312 34 13.191406 34 12.5 C 34 12 34.148438 11.53125 34.398438 11.140625 C 39.339844 11.710938 43.980469 14.039062 47.390625 17.710938 C 50.578125 21.148438 52.480469 25.421875 52.910156 30 Z M 52.910156 30 "/>
<path style=" stroke:none;fill-rule:nonzero;fill:url(#linear2);" d="M 29.996094 50.402344 C 30.035156 51.414062 29.476562 52.296875 28.640625 52.730469 C 27.179688 52.5 25.761719 52.101562 24.371094 51.558594 L 23.761719 51.320312 C 23.359375 51.171875 22.929688 51.148438 22.519531 51.25 L 12.269531 53.953125 C 11.527344 54.148438 10.851562 53.472656 11.046875 52.730469 L 13.558594 43.199219 C 13.679688 42.738281 13.628906 42.25 13.421875 41.820312 L 13.101562 41.160156 C 12.160156 39.21875 11.53125 37.140625 11.21875 35 L 18.5 35 C 19.328125 35 20 35.671875 20 36.5 C 20 37.328125 19.328125 38 18.5 38 C 17.671875 38 17 38.671875 17 39.5 C 17 40.328125 17.671875 41 18.5 41 L 23 41 C 24.207031 41 25.164062 42.0625 24.972656 43.316406 C 24.820312 44.308594 23.894531 45 22.890625 45 L 21.5 45 C 20.671875 45 20 45.671875 20 46.5 C 20 47.328125 20.671875 48 21.5 48 L 27.355469 48 C 28.726562 48 29.945312 49.035156 29.996094 50.402344 Z M 29.996094 50.402344 "/>
</g>
</svg>
